<svg width="127" height="19" viewBox="0 0 127 19" fill="none" xmlns="http://www.w3.org/2000/svg">
<path d="M111.934 0.800049H126.809V4.92505H117.459V7.30005H125.459V11.25H117.459V13.875H126.984V18H111.934V0.800049Z" fill="black"/>
<path d="M103.101 18V11.8C103.101 11.0334 103.126 10.25 103.176 9.45005C103.242 8.63338 103.309 7.95005 103.376 7.40005C103.442 6.85005 103.484 6.50005 103.501 6.35005H103.401L100.226 18H95.9006L92.7006 6.37505H92.6006C92.6173 6.52505 92.6589 6.87505 92.7256 7.42505C92.8089 7.95838 92.8839 8.63338 92.9506 9.45005C93.0173 10.25 93.0506 11.0334 93.0506 11.8V18H87.9756V0.800049H95.7756L98.3756 10.725H98.4756L101.051 0.800049H108.576V18H103.101Z" fill="black"/>
<path d="M79.6754 18V13.025H84.9754V18H79.6754Z" fill="black"/>
<path d="M72.0674 18L71.3424 15.5751H65.3174L64.5924 18H58.9424L65.2174 0.800049H71.6424L77.9174 18H72.0674ZM66.4674 11.725H70.1924L68.3924 5.60005H68.2924L66.4674 11.725Z" fill="black"/>
<path d="M49.7504 13.875H57.9254V18H41.2504V16.225L49.2254 4.92505H41.8504V0.800049H57.7254V2.57505L49.7504 13.875Z" fill="black"/>
<path d="M33.9752 18L26.7502 9.65005V18H21.6752V0.800049H26.5002L33.7252 9.27505V0.800049H38.8002V18H33.9752Z" fill="black"/>
<path d="M9.4 0.5C12.3667 0.5 14.6583 1.25833 16.275 2.775C17.8917 4.29167 18.7 6.5 18.7 9.4C18.7 12.3 17.8917 14.5083 16.275 16.025C14.6583 17.5417 12.3667 18.3 9.4 18.3C6.43333 18.3 4.14167 17.55 2.525 16.05C0.925 14.5333 0.125 12.3167 0.125 9.4C0.125 6.48333 0.925 4.275 2.525 2.775C4.14167 1.25833 6.43333 0.5 9.4 0.5ZM9.4 4.625C8.21667 4.625 7.31667 4.98333 6.7 5.7C6.08333 6.41667 5.775 7.38333 5.775 8.6V10.2C5.775 11.4167 6.08333 12.3833 6.7 13.1C7.31667 13.8167 8.21667 14.175 9.4 14.175C10.5833 14.175 11.4833 13.8167 12.1 13.1C12.7333 12.3833 13.05 11.4167 13.05 10.2V8.6C13.05 7.38333 12.7333 6.41667 12.1 5.7C11.4833 4.98333 10.5833 4.625 9.4 4.625Z" fill="black"/>
</svg>
