<svg width="275" height="36" viewBox="0 0 275 36" fill="none" xmlns="http://www.w3.org/2000/svg">
<path fill-rule="evenodd" clip-rule="evenodd" d="M57.983 22.182L55.342 12.102H53.062L50.422 22.182H57.983ZM45.022 22.182H46.942L50.422 8.741H57.983L61.463 22.182H63.383V28.543H59.903V25.543H48.502V28.543H45.022V22.182Z" fill="#1A1919"/>
<path fill-rule="evenodd" clip-rule="evenodd" d="M73.806 22.662C76.926 22.662 79.206 20.382 79.206 17.142C79.206 13.902 76.926 11.621 73.806 11.621C70.685 11.621 68.405 13.902 68.405 17.142C68.405 20.382 70.685 22.662 73.806 22.662ZM73.806 8.261C79.086 8.261 83.047 12.221 83.047 17.142C83.047 22.062 79.086 26.023 73.806 26.023C68.525 26.023 64.565 22.062 64.565 17.142C64.565 12.221 68.525 8.261 73.806 8.261Z" fill="#1A1919"/>
<path fill-rule="evenodd" clip-rule="evenodd" d="M93.55 17.142C95.59 17.142 96.67 16.062 96.67 14.622C96.67 13.182 95.59 12.102 93.55 12.102H89.47V17.142H93.55ZM85.869 8.741H93.67C97.75 8.741 100.391 11.382 100.391 14.622C100.391 17.862 97.75 20.502 93.67 20.502H89.47V25.543H85.869V8.741Z" fill="#1A1919"/>
<path fill-rule="evenodd" clip-rule="evenodd" d="M111.694 22.662C114.815 22.662 117.095 20.382 117.095 17.142C117.095 13.902 114.815 11.621 111.694 11.621C108.574 11.621 106.294 13.902 106.294 17.142C106.294 20.382 108.574 22.662 111.694 22.662ZM111.694 8.261C116.975 8.261 120.935 12.221 120.935 17.142C120.935 22.062 116.975 26.023 111.694 26.023C106.414 26.023 102.453 22.062 102.453 17.142C102.453 12.221 106.414 8.261 111.694 8.261Z" fill="#1A1919"/>
<path fill-rule="evenodd" clip-rule="evenodd" d="M126.917 16.782L121.636 8.741H125.716L130.037 15.342H131.957V8.741H135.557V15.342H137.478L141.798 8.741H145.878L140.598 16.782L146.238 25.543H142.038L137.597 18.702H135.557V25.543H131.957V18.702H129.917L125.477 25.543H121.276L126.917 16.782Z" fill="#1A1919"/>
<path fill-rule="evenodd" clip-rule="evenodd" d="M148.339 8.741H151.939V15.342H159.38V8.741H162.98V25.543H159.38V18.702H151.939V25.543H148.339V8.741Z" fill="#1A1919"/>
<path fill-rule="evenodd" clip-rule="evenodd" d="M176.084 18.462L174.403 12.102H172.363L170.683 18.462H176.084ZM169.603 8.741H177.164L181.604 25.543H177.884L176.923 21.823H169.843L168.883 25.543H165.163L169.603 8.741Z" fill="#1A1919"/>
<path fill-rule="evenodd" clip-rule="evenodd" d="M190.152 16.662H194.352V12.102H190.152C188.232 12.102 187.271 13.134 187.271 14.382C187.271 15.726 188.232 16.662 190.152 16.662ZM190.152 8.741H197.952V25.543H194.352V20.022H190.752L187.511 25.543H183.551L187.271 19.542C185.351 18.846 183.551 16.998 183.551 14.382C183.551 11.261 186.047 8.741 190.152 8.741Z" fill="#1A1919"/>
<path fill-rule="evenodd" clip-rule="evenodd" d="M217.512 8.261C221.112 8.261 223.272 9.869 224.472 11.453C225.193 12.389 225.72 13.446 226.032 14.622H222.312C222.096 14.07 221.76 13.566 221.352 13.134C220.608 12.389 219.432 11.621 217.512 11.621C214.391 11.621 212.111 13.902 212.111 17.142C212.111 20.526 214.247 22.662 217.512 22.662C219.504 22.662 220.704 21.823 221.448 20.982C221.88 20.478 222.216 19.926 222.432 19.302H226.152C225.793 20.55 225.24 21.678 224.496 22.662C223.2 24.343 221.064 26.023 217.512 26.023C212.111 26.023 208.271 22.182 208.271 17.142C208.271 12.102 212.111 8.261 217.512 8.261Z" fill="#1A1919"/>
<path fill-rule="evenodd" clip-rule="evenodd" d="M228.813 8.741H241.414V12.102H232.413V15.462H239.613V18.582H232.413V22.182H241.414V25.543H228.813V8.741Z" fill="#1A1919"/>
<path fill-rule="evenodd" clip-rule="evenodd" d="M243.361 8.741H257.762V12.102H252.361V25.543H248.761V12.102H243.361V8.741Z" fill="#1A1919"/>
<path fill-rule="evenodd" clip-rule="evenodd" d="M267.803 22.182C269.723 22.182 270.684 21.222 270.684 19.782C270.684 18.342 269.723 17.382 267.803 17.382H263.603V22.182H267.803ZM260.003 8.741H263.603V14.022H267.683C271.908 14.022 274.404 16.542 274.404 19.782C274.404 23.023 271.908 25.543 267.683 25.543H260.003V8.741Z" fill="#1A1919"/>
<path fill-rule="evenodd" clip-rule="evenodd" d="M17.096 0.916C26.538 0.916 34.193 8.57 34.193 18.012C34.193 27.454 26.538 35.109 17.096 35.109C7.654 35.109 0 27.454 0 18.012C0 8.57 7.654 0.916 17.096 0.916Z" fill="#1334AF"/>
<path fill-rule="evenodd" clip-rule="evenodd" d="M14.988 19.736L11.682 25.459H29.995L20.839 9.60001L17.533 15.326L20.084 19.736H14.988Z" fill="#FFFFFE"/>
<path fill-rule="evenodd" clip-rule="evenodd" d="M17.098 3.12L20.404 8.845L10.811 25.452L4.20001 25.459L17.098 3.12Z" fill="#FFFFFE"/>
</svg>
