<svg width="200" height="30" viewBox="0 0 200 30" fill="none" xmlns="http://www.w3.org/2000/svg">
<path fill-rule="evenodd" clip-rule="evenodd" d="M187.698 0C190.018 0 192.118 0.517162 193.992 1.54225C195.87 2.57657 197.343 3.99415 198.402 5.7996C199.466 7.60967 199.995 9.64137 200 11.904C200 14.1619 199.466 16.1982 198.407 18.0037C197.343 19.8138 195.875 21.2313 193.996 22.261C192.118 23.2907 190.018 23.8079 187.698 23.8079C185.355 23.8079 183.246 23.2907 181.367 22.261C179.489 21.2313 178.016 19.8091 176.943 17.9898C175.87 16.1705 175.336 14.1435 175.336 11.904C175.336 9.66446 175.87 7.63737 176.943 5.81807C178.016 4.00339 179.489 2.57657 181.367 1.54687C183.246 0.517162 185.355 0 187.698 0ZM38.9779 7.74357V0.267816H35.7965V7.71587L35.5671 7.53867C35.2573 7.30639 34.9309 7.09066 34.581 6.89857C33.1998 6.13206 31.6344 5.75342 29.8895 5.75342C28.1446 5.75342 26.5746 6.13668 25.1842 6.89857C23.7937 7.66508 22.7026 8.72711 21.9199 10.0893C21.1372 11.4514 20.7413 12.9983 20.7413 14.7253C20.7413 16.4522 21.1326 17.9991 21.9199 19.3612C22.7026 20.7234 23.7937 21.7947 25.1842 22.5704C26.5746 23.3462 28.1446 23.734 29.8895 23.734C31.6344 23.734 33.1998 23.3462 34.581 22.5704C35.0184 22.3257 35.419 22.0486 35.7965 21.7439V30H38.9779V21.7208L39.2138 21.9058C39.5337 22.148 39.8748 22.3719 40.2394 22.575C41.6298 23.3508 43.1998 23.7386 44.9447 23.7386C46.6897 23.7386 48.2551 23.3508 49.6363 22.575C51.0175 21.7993 52.0994 20.728 52.8867 19.3659C53.6694 18.0037 54.0654 16.4568 54.0654 14.7299C54.0654 13.0029 53.6694 11.4514 52.8867 10.0893C52.104 8.72711 51.0175 7.66046 49.6363 6.89857C48.2551 6.13206 46.6897 5.75342 44.9447 5.75342C43.1998 5.75342 41.6298 6.13668 40.2394 6.89857C39.7882 7.14791 39.3692 7.42958 38.9779 7.74357ZM94.0009 6.8801C92.6519 6.12744 91.128 5.75342 89.4245 5.75342C88.1169 5.75342 86.9245 6.00277 85.8425 6.50146C84.7606 7.00015 83.8674 7.73896 83.1584 8.71325V5.91966H80.1105V29.9908H83.2919V20.8804C84.0239 21.8131 84.9125 22.5196 85.9622 23.0091C87.012 23.4939 88.163 23.7386 89.4245 23.7386C91.128 23.7386 92.6519 23.36 94.0009 22.6074C95.3499 21.8501 96.4088 20.7927 97.1685 19.4305C97.9282 18.0683 98.3103 16.4984 98.3103 14.7253C98.3103 12.9521 97.9328 11.3914 97.1685 10.0385C96.4042 8.68555 95.3499 7.63275 94.0009 6.8801ZM13.8398 6.90319C12.4586 6.1413 10.8932 5.75804 9.14825 5.75804C7.40331 5.75804 5.83333 6.13668 4.44291 6.90319C3.05249 7.66508 1.96133 8.73172 1.17864 10.0939C0.391344 11.4561 0 13.0029 0 14.7299C0 16.4568 0.391344 18.0037 1.17864 19.3659C1.96133 20.728 3.05249 21.7993 4.44291 22.575C5.83333 23.3508 7.40331 23.7386 9.14825 23.7386C10.8932 23.7386 12.4586 23.3508 13.8398 22.575C15.221 21.7993 16.3076 20.728 17.0902 19.3659C17.8775 18.0037 18.2689 16.4568 18.2689 14.7299C18.2689 13.0029 17.8729 11.4561 17.0902 10.0939C16.3029 8.73172 15.221 7.66969 13.8398 6.90319ZM65.5295 5.74881C66.791 5.74881 67.9512 5.98892 69.0101 6.46452C70.0691 6.94013 70.953 7.64661 71.6621 8.57473V5.91504H74.8435V23.5401H71.7956V20.7465C71.0866 21.7208 70.1934 22.4642 69.1114 22.9721C68.0295 23.4801 66.837 23.7386 65.5295 23.7386C63.826 23.7386 62.302 23.36 60.953 22.6074C59.6041 21.8547 58.5497 20.7973 57.7855 19.4305C57.0212 18.0637 56.6437 16.4984 56.6437 14.7253C56.6437 12.9521 57.0258 11.3914 57.7855 10.0385C58.5451 8.68555 59.6041 7.63275 60.953 6.8801C62.302 6.12744 63.826 5.74881 65.5295 5.74881ZM149.959 19.8184C149.54 19.3982 149.019 19.1858 148.402 19.1858C147.781 19.1858 147.251 19.3982 146.809 19.8322C146.367 20.2617 146.146 20.8019 146.146 21.4437C146.146 22.1087 146.367 22.6535 146.809 23.0876C147.251 23.5216 147.781 23.7386 148.402 23.7386C149.001 23.7386 149.512 23.5262 149.945 23.0922C150.373 22.6628 150.589 22.1133 150.589 21.4484C150.589 20.7834 150.378 20.2386 149.959 19.8184ZM134.913 5.74881C136.593 5.74881 138.089 6.13206 139.406 6.89395C140.723 7.66046 141.75 8.72711 142.491 10.1031C143.232 11.4791 143.6 13.0491 143.6 14.8222L143.587 15.0962L143.564 15.4194C143.554 15.5354 143.542 15.6595 143.527 15.7919H129.273C129.471 17.3434 130.152 18.5901 131.312 19.5321C132.472 20.4741 133.913 20.9451 135.64 20.9451C137.739 20.9451 139.429 20.234 140.714 18.8164L142.472 20.8758C141.676 21.8085 140.686 22.515 139.507 23.0045C138.324 23.4939 137.003 23.734 135.548 23.734C133.692 23.734 132.044 23.3508 130.608 22.5889C129.171 21.8224 128.062 20.7557 127.274 19.3797C126.492 18.0037 126.096 16.4522 126.096 14.7253C126.096 13.0168 126.478 11.4791 127.238 10.1031C128.002 8.72711 129.047 7.66046 130.387 6.89395C131.722 6.12744 133.232 5.74881 134.913 5.74881ZM112.27 17.8236L105.373 5.91966H102.09V23.5355H105.009V10.6341L111.506 21.5407H112.896L119.461 10.6711V23.5401H122.343V5.91966H119.365L112.27 17.8236ZM163.517 0.267816C166.524 0.267816 168.89 0.988148 170.612 2.42881C172.334 3.86948 173.2 5.85501 173.2 8.38079C173.2 10.9066 172.339 12.8921 170.612 14.3328C168.886 15.7734 166.524 16.4938 163.517 16.4938H157.781V23.5401H154.466V0.267816H163.517ZM6.11418 9.30891C7.01197 8.79637 8.02026 8.5424 9.14825 8.5424C10.2762 8.5424 11.2891 8.80099 12.1823 9.30891C13.0755 9.82146 13.7799 10.5464 14.2864 11.4884C14.7974 12.4304 15.0506 13.5109 15.0506 14.7299C15.0506 15.9489 14.7928 17.0294 14.2864 17.9714C13.7799 18.9133 13.0755 19.6429 12.1823 20.1647C11.2891 20.6865 10.2762 20.9451 9.14825 20.9451C8.02026 20.9451 7.00737 20.6865 6.11418 20.1647C5.21639 19.6475 4.51197 18.9133 3.99171 17.9714C3.47146 17.0294 3.21363 15.9489 3.21363 14.7299C3.21363 13.5109 3.47146 12.4304 3.99171 11.4884C4.51197 10.5464 5.22099 9.81684 6.11418 9.30891ZM29.8895 8.5424C28.7615 8.5424 27.7486 8.80099 26.8554 9.30891C25.9576 9.82146 25.2532 10.5464 24.733 11.4884C24.2127 12.4304 23.9549 13.5109 23.9549 14.7299C23.9549 15.9489 24.2127 17.0294 24.733 17.9714C25.2532 18.9133 25.9576 19.6429 26.8554 20.1647C27.7532 20.6865 28.7615 20.9451 29.8895 20.9451C31.0175 20.9451 32.0258 20.6865 32.9236 20.1647C33.8168 19.6475 34.5166 18.9133 35.0276 17.9714C35.5387 17.0294 35.7919 15.9489 35.7919 14.7299C35.7919 13.5109 35.5341 12.4304 35.0276 11.4884C34.5212 10.5464 33.8168 9.81684 32.9236 9.30891C32.0258 8.79637 31.0175 8.5424 29.8895 8.5424ZM41.9107 9.30891C42.8039 8.80099 43.8168 8.5424 44.9447 8.5424C46.0727 8.5424 47.081 8.79637 47.9788 9.30891C48.872 9.81684 49.5764 10.5464 50.0829 11.4884C50.5893 12.4304 50.8471 13.5109 50.8471 14.7299C50.8471 15.9489 50.5939 17.0294 50.0829 17.9714C49.5764 18.9133 48.872 19.6475 47.9788 20.1647C47.0856 20.6865 46.0727 20.9451 44.9447 20.9451C43.8168 20.9451 42.8085 20.6865 41.9107 20.1647C41.0175 19.6429 40.3085 18.9133 39.7882 17.9714C39.268 17.0294 39.0101 15.9489 39.0101 14.7299C39.0101 13.5109 39.268 12.4304 39.7882 11.4884C40.3085 10.5464 41.0129 9.82146 41.9107 9.30891ZM65.7919 8.5424C64.6639 8.5424 63.6556 8.79637 62.7578 9.30891C61.8646 9.81684 61.1556 10.5464 60.6354 11.4884C60.1151 12.4304 59.8573 13.5109 59.8573 14.7299C59.8573 15.9489 60.1151 17.0294 60.6354 17.9714C61.1556 18.9133 61.86 19.6475 62.7578 20.1647C63.651 20.6865 64.6639 20.9451 65.7919 20.9451C66.8969 20.9451 67.9006 20.6865 68.8075 20.1647C69.7145 19.6429 70.419 18.9133 70.93 17.9714C71.4365 17.0294 71.6943 15.9489 71.6943 14.7299C71.6943 13.5109 71.4411 12.4304 70.93 11.4884C70.4236 10.5464 69.7145 9.82146 68.8075 9.30891C67.9006 8.80099 66.8969 8.5424 65.7919 8.5424ZM86.1602 9.32276C87.058 8.80099 88.0571 8.5424 89.1621 8.5424C90.2901 8.5424 91.3029 8.80099 92.1961 9.30891C93.0939 9.82146 93.7983 10.5464 94.3186 11.4884C94.8343 12.4304 95.0967 13.5109 95.0967 14.7299C95.0967 15.9489 94.8389 17.0294 94.3186 17.9714C93.7983 18.9133 93.0893 19.6429 92.1961 20.1647C91.3029 20.6865 90.2901 20.9451 89.1621 20.9405C88.0571 20.9405 87.0534 20.6819 86.1464 20.1601C85.2394 19.6429 84.5304 18.9087 84.0239 17.9668C83.5129 17.0248 83.2597 15.9443 83.2597 14.7253C83.2597 13.5062 83.5175 12.435 84.0378 11.5022C84.558 10.5695 85.2624 9.84454 86.1602 9.32276ZM189.323 20.7188C190.387 20.5479 191.377 20.2063 192.288 19.6845C193.646 18.9087 194.719 17.8375 195.502 16.4753C196.289 15.1085 196.68 13.5847 196.68 11.904C196.68 10.2186 196.285 8.69478 195.502 7.33262C194.719 5.97045 193.646 4.89918 192.288 4.12344C191.478 3.65964 190.606 3.33812 189.675 3.15241L189.323 3.08912V20.7188ZM183.076 4.12344C183.982 3.61551 184.963 3.27382 186.008 3.09835V20.7049L185.662 20.6405C184.746 20.4524 183.882 20.1355 183.076 19.6799C181.69 18.9041 180.608 17.8375 179.825 16.4753C179.042 15.1131 178.646 13.5894 178.646 11.904C178.646 10.2186 179.038 8.69478 179.825 7.33262C180.608 5.97045 181.694 4.89918 183.076 4.12344ZM163.421 3.15376H157.785V13.594H163.421C165.52 13.5986 167.118 13.1507 168.227 12.2503C169.332 11.3545 169.885 10.0616 169.885 8.37617C169.885 6.69078 169.332 5.40249 168.227 4.50208C167.122 3.60166 165.52 3.15376 163.421 3.15376ZM131.077 9.83993C132.109 8.91181 133.384 8.44544 134.908 8.44544C136.436 8.44544 137.712 8.91642 138.738 9.8584C139.765 10.8004 140.368 12.0148 140.543 13.497H129.273C129.448 11.9917 130.051 10.7727 131.077 9.83993Z" fill="#1D1D1B"/>
</svg>
