<?xml version="1.0" encoding="utf-8"?>
<!-- Generator: Adobe Illustrator 23.0.3, SVG Export Plug-In . SVG Version: 6.00 Build 0)  -->
<svg version="1.1" xmlns="http://www.w3.org/2000/svg" xmlns:xlink="http://www.w3.org/1999/xlink" x="0px" y="0px"
	 viewBox="0 0 434.39 64.98" style="enable-background:new 0 0 434.39 64.98;" xml:space="preserve">
<style type="text/css">
	.st0{fill:#1D1D1B;}
	.st1{fill:#FFFFFF;}
</style>
<g id="Layer_3">
</g>
<g id="Layer_2">
	<g>
		<rect x="2592.61" y="71.31" class="st0" width="30.17" height="1.57"/>
		<rect x="2592.61" y="68.18" class="st1" width="24.05" height="3.13"/>
		<rect x="2592.61" y="66.61" class="st0" width="24.05" height="1.57"/>
	</g>
	<g>
		<path class="st0" d="M9.65,48.89c-3.02-1.68-5.39-4-7.09-6.95C0.85,38.99,0,35.64,0,31.9s0.85-7.09,2.56-10.04
			c1.7-2.95,4.07-5.26,7.09-6.91c3.02-1.66,6.43-2.48,10.22-2.48c3.79,0,7.19,0.83,10.19,2.48c3,1.66,5.35,3.96,7.06,6.91
			c1.7,2.95,2.56,6.3,2.56,10.04s-0.85,7.09-2.56,10.04c-1.7,2.95-4.06,5.27-7.06,6.95c-3,1.68-6.4,2.52-10.19,2.52
			C16.08,51.41,12.67,50.57,9.65,48.89z M26.46,43.67c1.94-1.13,3.47-2.71,4.57-4.75c1.1-2.04,1.66-4.38,1.66-7.02
			c0-2.64-0.55-4.98-1.66-7.02c-1.1-2.04-2.63-3.61-4.57-4.72c-1.94-1.1-4.14-1.66-6.59-1.66c-2.45,0-4.64,0.55-6.59,1.66
			c-1.94,1.1-3.48,2.68-4.61,4.72c-1.13,2.04-1.69,4.38-1.69,7.02c0,2.64,0.56,4.98,1.69,7.02c1.13,2.04,2.66,3.63,4.61,4.75
			c1.94,1.13,4.14,1.69,6.59,1.69C22.32,45.36,24.52,44.8,26.46,43.67z"/>
		<path class="st0" d="M114.87,21.85c-1.7-2.95-4.06-5.26-7.06-6.91c-3-1.66-6.4-2.48-10.19-2.48c-3.79,0-7.2,0.83-10.22,2.48
			c-0.98,0.54-1.89,1.15-2.74,1.83V0.58h-6.91v16.13c-0.82-0.65-1.69-1.25-2.64-1.77c-3-1.66-6.4-2.48-10.19-2.48
			c-3.79,0-7.2,0.83-10.22,2.48c-3.02,1.66-5.39,3.96-7.09,6.91c-1.7,2.95-2.56,6.3-2.56,10.04s0.85,7.09,2.56,10.04
			c1.7,2.95,4.07,5.27,7.09,6.95c3.02,1.68,6.43,2.52,10.22,2.52c3.79,0,7.19-0.84,10.19-2.52c0.95-0.53,1.82-1.13,2.64-1.79v17.88
			h6.91V47.04c0.84,0.68,1.75,1.3,2.74,1.85c3.02,1.68,6.43,2.52,10.22,2.52c3.79,0,7.19-0.84,10.19-2.52c3-1.68,5.35-4,7.06-6.95
			c1.7-2.95,2.56-6.3,2.56-10.04S116.57,24.8,114.87,21.85z M76.08,38.92c-1.11,2.04-2.63,3.63-4.57,4.75
			c-1.95,1.13-4.14,1.69-6.59,1.69c-2.45,0-4.64-0.56-6.59-1.69c-1.95-1.13-3.48-2.71-4.61-4.75c-1.13-2.04-1.69-4.38-1.69-7.02
			c0-2.64,0.56-4.98,1.69-7.02c1.13-2.04,2.66-3.61,4.61-4.72c1.94-1.1,4.14-1.66,6.59-1.66c2.45,0,4.64,0.55,6.59,1.66
			c1.94,1.1,3.47,2.68,4.57,4.72c1.1,2.04,1.66,4.38,1.66,7.02C77.74,34.54,77.19,36.88,76.08,38.92z M108.78,38.92
			c-1.1,2.04-2.63,3.63-4.57,4.75c-1.94,1.13-4.14,1.69-6.59,1.69s-4.64-0.56-6.59-1.69c-1.94-1.13-3.48-2.71-4.61-4.75
			c-1.13-2.04-1.69-4.38-1.69-7.02c0-2.64,0.56-4.98,1.69-7.02c1.13-2.04,2.66-3.61,4.61-4.72c1.94-1.1,4.14-1.66,6.59-1.66
			s4.64,0.55,6.59,1.66c1.94,1.1,3.47,2.68,4.57,4.72c1.1,2.04,1.66,4.38,1.66,7.02C110.44,34.54,109.89,36.88,108.78,38.92z"/>
		<path class="st0" d="M162.56,12.82v38.16h-6.62v-6.05c-1.54,2.11-3.48,3.72-5.83,4.82c-2.35,1.1-4.94,1.66-7.78,1.66
			c-3.7,0-7.01-0.82-9.94-2.45s-5.22-3.92-6.88-6.88s-2.48-6.35-2.48-10.19c0-3.84,0.83-7.22,2.48-10.15s3.95-5.21,6.88-6.84
			s6.24-2.45,9.94-2.45c2.74,0,5.26,0.52,7.56,1.55c2.3,1.03,4.22,2.56,5.76,4.57v-5.76H162.56z M149.45,43.67
			c1.97-1.13,3.5-2.71,4.61-4.75c1.1-2.04,1.66-4.38,1.66-7.02c0-2.64-0.55-4.98-1.66-7.02c-1.1-2.04-2.64-3.61-4.61-4.72
			c-1.97-1.1-4.15-1.66-6.55-1.66c-2.45,0-4.64,0.55-6.59,1.66c-1.94,1.1-3.48,2.68-4.61,4.72c-1.13,2.04-1.69,4.38-1.69,7.02
			c0,2.64,0.56,4.98,1.69,7.02c1.13,2.04,2.66,3.63,4.61,4.75c1.94,1.13,4.14,1.69,6.59,1.69C145.3,45.36,147.48,44.8,149.45,43.67z
			"/>
		<path class="st0" d="M204.17,14.9c2.93,1.63,5.22,3.91,6.88,6.84s2.48,6.31,2.48,10.15c0,3.84-0.83,7.24-2.48,10.19
			s-3.95,5.24-6.88,6.88c-2.93,1.63-6.24,2.45-9.94,2.45c-2.74,0-5.24-0.53-7.52-1.58c-2.28-1.06-4.21-2.59-5.8-4.61v19.73h-6.91
			V12.82h6.62v6.05c1.54-2.11,3.48-3.71,5.83-4.79c2.35-1.08,4.94-1.62,7.78-1.62C197.93,12.46,201.24,13.27,204.17,14.9z
			 M200.25,43.67c1.94-1.13,3.48-2.71,4.61-4.75c1.13-2.04,1.69-4.38,1.69-7.02c0-2.64-0.57-4.98-1.69-7.02
			c-1.13-2.04-2.66-3.61-4.61-4.72c-1.94-1.1-4.14-1.66-6.59-1.66c-2.4,0-4.57,0.56-6.52,1.69s-3.48,2.7-4.61,4.72
			c-1.13,2.02-1.69,4.34-1.69,6.98c0,2.64,0.55,4.98,1.66,7.02c1.1,2.04,2.64,3.63,4.61,4.75c1.97,1.13,4.15,1.69,6.55,1.69
			C196.11,45.36,198.31,44.8,200.25,43.67z"/>
		<path class="st0" d="M265.73,12.82v38.16h-6.26V23.11l-14.26,23.54h-3.02l-14.11-23.62v27.94h-6.34V12.82h7.13l14.98,25.78
			l15.41-25.78H265.73z"/>
		<path class="st0" d="M311.74,34.2h-30.96c0.43,3.36,1.91,6.06,4.43,8.1c2.52,2.04,5.65,3.06,9.4,3.06c4.56,0,8.23-1.54,11.02-4.61
			l3.82,4.46c-1.73,2.02-3.88,3.55-6.44,4.61c-2.57,1.06-5.44,1.58-8.6,1.58c-4.03,0-7.61-0.83-10.73-2.48
			c-3.12-1.66-5.53-3.97-7.24-6.95c-1.7-2.98-2.56-6.34-2.56-10.08c0-3.7,0.83-7.03,2.48-10.01c1.66-2.98,3.93-5.29,6.84-6.95
			c2.9-1.66,6.18-2.48,9.83-2.48c3.65,0,6.9,0.83,9.76,2.48c2.86,1.66,5.09,3.97,6.7,6.95c1.61,2.98,2.41,6.38,2.41,10.22
			C311.88,32.64,311.84,33.34,311.74,34.2z M284.7,21.31c-2.23,2.02-3.54,4.66-3.92,7.92h24.48c-0.38-3.21-1.69-5.84-3.92-7.88
			c-2.23-2.04-5-3.06-8.32-3.06C289.71,18.29,286.94,19.3,284.7,21.31z"/>
		<path class="st0" d="M318.87,50c-0.96-0.94-1.44-2.12-1.44-3.56c0-1.39,0.48-2.56,1.44-3.49c0.96-0.94,2.11-1.4,3.46-1.4
			c1.34,0,2.47,0.46,3.38,1.37c0.91,0.91,1.37,2.09,1.37,3.53c0,1.44-0.47,2.63-1.4,3.56c-0.94,0.94-2.05,1.4-3.35,1.4
			C320.98,51.41,319.83,50.94,318.87,50z"/>
		<path class="st0" d="M370.57,5.26c3.74,3.12,5.62,7.42,5.62,12.89c0,5.47-1.87,9.77-5.62,12.89s-8.88,4.68-15.41,4.68h-12.46
			v15.26h-7.2V0.58h19.66C361.69,0.58,366.83,2.14,370.57,5.26z M365.39,26.53c2.4-1.94,3.6-4.74,3.6-8.39c0-3.65-1.2-6.44-3.6-8.39
			s-5.88-2.92-10.44-2.92h-12.24v22.61h12.24C359.51,29.45,362.98,28.48,365.39,26.53z"/>
		<path class="st0" d="M430.93,12.56c-2.3-3.91-5.5-6.98-9.58-9.22C417.28,1.12,412.72,0,407.68,0c-5.09,0-9.67,1.12-13.75,3.35
			c-4.08,2.23-7.28,5.32-9.61,9.25c-2.33,3.94-3.49,8.33-3.49,13.18c0,4.85,1.16,9.24,3.49,13.18c2.33,3.94,5.53,7.02,9.61,9.25
			c4.08,2.23,8.66,3.35,13.75,3.35c5.04,0,9.6-1.12,13.68-3.35c4.08-2.23,7.27-5.3,9.58-9.22c2.3-3.91,3.46-8.32,3.46-13.21
			C434.39,20.88,433.24,16.48,430.93,12.56z M390.58,35.68c-1.7-2.95-2.56-6.25-2.56-9.9c0-3.65,0.85-6.95,2.56-9.9
			c1.7-2.95,4.06-5.27,7.06-6.95c1.97-1.1,4.1-1.84,6.37-2.22v38.13c-2.27-0.38-4.4-1.11-6.37-2.22
			C394.63,40.94,392.28,38.63,390.58,35.68z M424.63,35.68c-1.7,2.95-4.03,5.27-6.98,6.95c-1.98,1.13-4.13,1.87-6.44,2.24V6.69
			c2.31,0.37,4.46,1.11,6.44,2.24c2.95,1.68,5.28,4,6.98,6.95s2.56,6.25,2.56,9.9C427.19,29.42,426.34,32.72,424.63,35.68z"/>
	</g>
</g>
</svg>
