<?xml version="1.0" encoding="UTF-8"?>
<!DOCTYPE svg PUBLIC "-//W3C//DTD SVG 1.1//EN" "http://www.w3.org/Graphics/SVG/1.1/DTD/svg11.dtd">
<!-- Creator: CorelDRAW 2017 -->
<svg xmlns="http://www.w3.org/2000/svg" xml:space="preserve" width="330px" height="127px" version="1.1" style="shape-rendering:geometricPrecision; text-rendering:geometricPrecision; image-rendering:optimizeQuality; fill-rule:evenodd; clip-rule:evenodd"
viewBox="0 0 330 123.27"
 xmlns:xlink="http://www.w3.org/1999/xlink">
 <defs>
  <style type="text/css">
   <![CDATA[
    .fil0 {fill:#007EEE}
    .fil1 {fill:#007EEE;fill-rule:nonzero}
   ]]>
  </style>
 </defs>
 <g id="Слой_x0020_1">
  <metadata id="CorelCorpID_0Corel-Layer"/>
  <path class="fil0" d="M289.01 40.89l-20.7 0c-12.43,0 -19.12,10.37 -20.77,21.67l-5.9 40.44 74.69 0.06c3.7,0 6.72,3.02 6.72,6.72 -0.01,3.71 -3.03,6.72 -6.73,6.72l-82.46 -0.07c-2.02,0 -3.76,-0.8 -5.08,-2.33 -1.32,-1.52 -1.86,-3.36 -1.57,-5.36l7.03 -48.12c2.64,-18.06 14.78,-33.17 34.07,-33.17l27.43 0c3.7,0 6.72,3.02 6.72,6.72l0 54.94c0,3.7 -3.02,6.72 -6.73,6.72 -3.7,0 -6.72,-3.02 -6.72,-6.72l0 -48.22zm-95.68 41.48l9.36 0c3.09,-6.46 4.68,-13.52 4.68,-20.74 0,-26.61 -21.57,-48.18 -48.19,-48.18 -26.61,0 -48.18,21.57 -48.18,48.18 0,26.63 21.58,48.15 48.19,48.19l6.67 0.01c3.7,0 6.71,3.03 6.71,6.73 -0.01,3.7 -3.03,6.72 -6.73,6.71l-6.67 -0.01c-34.02,-0.04 -61.62,-27.59 -61.62,-61.63 0,-34.03 27.6,-61.63 61.63,-61.63 34.04,0 61.63,27.6 61.63,61.63 0,10.85 -2.82,21.44 -8.25,30.83 -1.24,2.14 -3.36,3.36 -5.82,3.36l-20.13 0c-3.7,0 -6.71,-3.02 -6.72,-6.72l-0.02 -27.5c0,-11.44 -9.26,-20.71 -20.7,-20.71 -11.43,0 -20.7,9.26 -20.7,20.7 0,11.47 9.31,20.72 20.66,20.77l6.85 -0.07c3.71,-0.05 6.76,2.94 6.8,6.64 0.04,3.7 -2.95,6.76 -6.65,6.8l-6.85 0.07c-0.04,0 -0.07,0 -0.11,0 -18.84,-0.08 -34.14,-15.34 -34.14,-34.21 0,-18.86 15.29,-34.14 34.14,-34.14 18.86,0 34.14,15.29 34.15,34.14l0.01 20.78zm-159.36 13.59l0.01 13.71c0,3.7 -3.02,6.72 -6.72,6.72 -3.71,0.01 -6.73,-3.01 -6.73,-6.71l0 -13.71 -13.8 0.01c-3.7,0 -6.73,-3.02 -6.73,-6.72 0,-3.7 3.02,-6.72 6.72,-6.73l48.01 -0.03c11.47,-0.01 20.64,-9.51 20.64,-20.91 0,-11.43 -9.26,-20.7 -20.7,-20.7l-20.71 0 -0.05 27.66c0,3.7 -3.03,6.71 -6.73,6.71 -3.7,-0.01 -6.72,-3.03 -6.71,-6.74l0.06 -34.36c0,-3.7 3.02,-6.71 6.72,-6.71l27.43 0c0,0 0,0 0,0 18.85,0 34.14,15.29 34.14,34.14 0,18.82 -15.2,34.34 -34.09,34.36l-20.76 0.01z"/>
 </g>
</svg>
