<svg width="153" height="42" viewBox="0 0 153 42" fill="none" xmlns="http://www.w3.org/2000/svg">
<g clip-path="url(#clip0_2342_953)">
<path d="M76.0352 23.4009C76.0352 20.4482 76.9171 17.994 78.6811 16.0384C80.445 14.0827 82.6691 13.124 85.3533 13.124C87.6541 13.124 89.5331 13.891 90.9136 15.4248C92.2941 16.9587 92.9843 18.991 92.9843 21.5986C92.9843 24.5513 92.1023 27.0055 90.3767 28.9611C88.6128 30.9168 86.427 31.8755 83.7428 31.8755C81.4037 31.8755 79.5247 31.1085 78.1442 29.5747C76.7254 28.0025 76.0352 25.9701 76.0352 23.4009ZM80.4833 23.6693C80.4833 25.2032 80.7901 26.3536 81.4037 27.1205C82.0172 27.8874 82.8225 28.2709 83.8962 28.2709C85.3534 28.2709 86.4654 27.5806 87.3474 26.2002C88.191 24.8197 88.6128 23.2092 88.6128 21.3685C88.6128 19.8347 88.306 18.6843 87.6925 17.9173C87.0789 17.1504 86.2737 16.7669 85.2 16.7669C83.7428 16.7669 82.6308 17.4572 81.7488 18.8377C80.9052 20.2181 80.4833 21.8287 80.4833 23.6693Z" fill="#725DF5"/>
<path d="M95.0938 13.3921H99.5035L99.7337 26.8134C100.961 23.5923 102.686 19.1057 104.795 13.3921H109.129C110.049 21.6366 110.547 26.0848 110.624 26.775L114.459 13.3921H119.175L113.04 31.645H107.441C107.403 31.2999 107.288 30.4179 107.135 28.9608C106.943 27.5419 106.828 26.4682 106.751 25.8163C106.674 25.1645 106.598 24.2058 106.483 22.9787C106.368 21.7516 106.329 20.5629 106.291 19.4125C105.907 20.5629 105.524 21.7516 105.102 22.9787C104.68 24.2058 104.297 25.2028 104.028 25.9697C103.722 26.7367 103.338 27.7337 102.878 28.9608C102.418 30.1879 102.073 31.0698 101.881 31.6067H96.2057L95.0938 13.3921Z" fill="#725DF5"/>
<path d="M51.4219 13.3154H55.8317L56.0618 26.7367C57.2889 23.5156 59.0145 19.0291 61.1235 13.3154H65.4567C66.377 21.5599 66.8755 26.0081 66.9522 26.6984L70.7868 13.3154H75.5035L69.368 31.5684H63.8078C63.7694 31.2232 63.6544 30.3413 63.501 28.8841C63.3093 27.4653 63.1942 26.3916 63.1176 25.7397C63.0409 25.0878 62.9642 24.1291 62.8491 22.9021C62.7341 21.675 62.6957 20.4862 62.6574 19.3358C62.2739 20.4862 61.8905 21.675 61.4686 22.9021C61.0468 24.1291 60.6634 25.1262 60.3949 25.8931C60.0882 26.66 59.7047 27.657 59.2446 28.8841C58.7844 30.1112 58.4393 30.9932 58.2475 31.53H52.5723L51.4219 13.3154Z" fill="#725DF5"/>
<path d="M119.676 31.645L122.207 13.3921H127.422L129.377 26.5449L134.976 13.3921H140.229L137.699 31.645H133.787L134.324 27.6953C134.823 24.1675 135.206 21.6749 135.551 20.2178L130.758 31.3766H126.847L125.159 20.2178C125.044 22.2501 124.738 24.7427 124.354 27.6953L123.817 31.645H119.676Z" fill="#725DF5"/>
<path d="M144.832 31.7603H140.652L143.183 13.5073H147.363L144.832 31.7603Z" fill="#725DF5"/>
<path d="M147.823 10.1328L147.363 13.5073H151.543L152.003 10.1328H147.823Z" fill="#725DF5"/>
<path d="M32.5349 41.6739H8.81326C3.95361 41.6739 0 37.7203 0 32.8606V9.13894C0 4.2793 3.95361 0.325684 8.81326 0.325684H32.5349C37.3946 0.325684 41.3482 4.2793 41.3482 9.13894V32.8606C41.307 37.7614 37.3946 41.6739 32.5349 41.6739Z" fill="#725DF5"/>
<path d="M24.6899 25.9468C24.6075 25.1231 24.031 19.8516 22.919 10.1323H17.8123C15.3001 16.8864 13.2821 22.1579 11.8407 25.9468L11.5524 10.1323H6.36328L7.68115 31.6713H14.3941C14.6412 31.0535 15.0118 29.9827 15.5884 28.5413C16.1649 27.0999 16.618 25.9056 16.9474 24.9995C17.2769 24.0935 17.7299 22.8992 18.2241 21.4578C18.7183 20.0163 19.2125 18.6161 19.6243 17.2571C19.6655 18.6161 19.7479 20.0163 19.8715 21.499C19.995 22.9404 20.0774 24.0523 20.1597 24.8348C20.2421 25.6173 20.3656 26.8528 20.6127 28.5413C20.8187 30.2298 20.9422 31.3006 20.9834 31.7125H27.5727L32.8442 16.0216H27.5727L24.6899 25.9468Z" fill="#F3F3F3"/>
<path d="M33.3794 14.1271L34.7385 10.1323H29.1375L27.9844 14.1271H28.0256H33.3794Z" fill="#F3F3F3"/>
</g>
<defs>
<clipPath id="clip0_2342_953">
<rect width="153" height="42" fill="white"/>
</clipPath>
</defs>
</svg>
